<svg aria-hidden="true" style="position: absolute; width: 0; height: 0; overflow: hidden;" version="1.1" xmlns="http://www.w3.org/2000/svg" xmlns:xlink="http://www.w3.org/1999/xlink">
<defs>
<symbol id="Logo" viewBox="0 0 116 32">
<path  d="M13.353 1.922h5.629l13.44 28.344h-7.68l-2.662-6.005h-12l-2.575 6.005h-7.505l13.353-28.344zM15.971 10.168l-3.753 8.807h7.549l-3.796-8.807z"></path>
<path  d="M34.787 0h6.545v30.265h-6.545v-30.265z"></path>
<path  d="M46.123 10.809h6.545v19.456h-6.545v-19.456zM45.599 4.684c0-0.961 0.364-1.775 1.091-2.442 0.756-0.694 1.658-1.041 2.705-1.041s1.935 0.347 2.662 1.041c0.756 0.667 1.135 1.481 1.135 2.442s-0.378 1.788-1.135 2.482c-0.727 0.667-1.615 1.001-2.662 1.001s-1.949-0.334-2.705-1.001c-0.727-0.694-1.091-1.521-1.091-2.482z"></path>
<path  d="M55.145 10.809h7.069l5.367 13.211h0.087l4.975-13.211h6.589l-8.378 19.456h-6.938l-8.771-19.456z"></path>
<path  d="M81.705 10.809h6.545v19.456h-6.545v-19.456zM81.181 4.684c0-0.961 0.364-1.775 1.091-2.442 0.756-0.694 1.658-1.041 2.705-1.041s1.935 0.347 2.662 1.041c0.756 0.667 1.135 1.481 1.135 2.442s-0.378 1.788-1.135 2.482c-0.727 0.667-1.615 1.001-2.662 1.001s-1.949-0.334-2.705-1.001c-0.727-0.694-1.091-1.521-1.091-2.482z"></path>
<path  d="M92.168 20.537c0-1.548 0.305-2.949 0.916-4.204s1.44-2.322 2.487-3.203c1.076-0.907 2.327-1.601 3.753-2.082 1.455-0.48 2.996-0.721 4.625-0.721s3.156 0.24 4.582 0.721c1.455 0.48 2.705 1.174 3.753 2.082 1.076 0.881 1.92 1.948 2.531 3.203s0.916 2.656 0.916 4.203c0 1.548-0.305 2.949-0.916 4.203s-1.455 2.335-2.531 3.243c-1.047 0.881-2.298 1.561-3.753 2.042-1.425 0.48-2.953 0.721-4.582 0.721s-3.171-0.24-4.625-0.721c-1.425-0.48-2.676-1.161-3.753-2.042-1.047-0.907-1.876-1.988-2.487-3.243s-0.916-2.656-0.916-4.203zM98.713 20.537c0 1.468 0.451 2.656 1.353 3.563 0.931 0.907 2.225 1.361 3.884 1.361s2.938-0.454 3.84-1.361c0.931-0.907 1.396-2.095 1.396-3.563s-0.465-2.656-1.396-3.563c-0.902-0.907-2.182-1.361-3.84-1.361s-2.953 0.454-3.884 1.361c-0.902 0.907-1.353 2.095-1.353 3.563z"></path>
</symbol>
<symbol id="menu2" viewBox="0 0 44 32">
<path d="M0 6h28v6h-28v-6zM0 14h28v6h-28v-6zM0 22h28v6h-28v-6z"></path>
<path d="M31 18l6 6 6-6z"></path>
<path d="M43 16l-6-6-6 6z"></path>
</symbol>
<symbol id="cross" viewBox="0 0 32 32">
<path d="M31.708 25.708c-0-0-0-0-0-0l-9.708-9.708 9.708-9.708c0-0 0-0 0-0 0.105-0.105 0.18-0.227 0.229-0.357 0.133-0.356 0.057-0.771-0.229-1.057l-4.586-4.586c-0.286-0.286-0.702-0.361-1.057-0.229-0.13 0.048-0.252 0.124-0.357 0.228 0 0-0 0-0 0l-9.708 9.708-9.708-9.708c-0-0-0-0-0-0-0.105-0.104-0.227-0.18-0.357-0.228-0.356-0.133-0.771-0.057-1.057 0.229l-4.586 4.586c-0.286 0.286-0.361 0.702-0.229 1.057 0.049 0.13 0.124 0.252 0.229 0.357 0 0 0 0 0 0l9.708 9.708-9.708 9.708c-0 0-0 0-0 0-0.104 0.105-0.18 0.227-0.229 0.357-0.133 0.355-0.057 0.771 0.229 1.057l4.586 4.586c0.286 0.286 0.702 0.361 1.057 0.229 0.13-0.049 0.252-0.124 0.357-0.229 0-0 0-0 0-0l9.708-9.708 9.708 9.708c0 0 0 0 0 0 0.105 0.105 0.227 0.18 0.357 0.229 0.356 0.133 0.771 0.057 1.057-0.229l4.586-4.586c0.286-0.286 0.362-0.702 0.229-1.057-0.049-0.13-0.124-0.252-0.229-0.357z"></path>
</symbol>
</defs>
</svg>
